<svg width="520" height="520" viewBox="0 0 520 520" fill="none" xmlns="http://www.w3.org/2000/svg">
<path d="M233.316 71.7651C242.41 47.143 277.234 47.143 286.329 71.7651V71.7651C293.085 90.0565 315.899 96.1696 330.895 83.7067V83.7067C351.082 66.9305 381.241 84.3428 376.806 110.213V110.213C373.511 129.432 390.212 146.133 409.431 142.838V142.838C435.301 138.403 452.714 168.562 435.937 188.749V188.749C423.474 203.745 429.588 226.56 447.879 233.316V233.316C472.501 242.41 472.501 277.234 447.879 286.328V286.328C429.588 293.084 423.474 315.899 435.937 330.895V330.895C452.714 351.082 435.301 381.241 409.431 376.806V376.806C390.212 373.511 373.511 390.212 376.806 409.431V409.431C381.241 435.301 351.082 452.714 330.895 435.937V435.937C315.899 423.474 293.085 429.587 286.329 447.879V447.879C277.234 472.501 242.41 472.501 233.316 447.879V447.879C226.56 429.587 203.745 423.474 188.749 435.937V435.937C168.562 452.714 138.403 435.301 142.838 409.431V409.431C146.133 390.212 129.432 373.511 110.213 376.806V376.806C84.3429 381.241 66.9305 351.082 83.7068 330.895V330.895C96.1697 315.899 90.0566 293.084 71.7652 286.328V286.328C47.1431 277.234 47.1431 242.41 71.7652 233.316V233.316C90.0566 226.56 96.1697 203.745 83.7068 188.749V188.749C66.9305 168.562 84.3429 138.403 110.213 142.838V142.838C129.432 146.133 146.133 129.432 142.838 110.213V110.213C138.403 84.3428 168.562 66.9305 188.749 83.7067V83.7067C203.745 96.1696 226.56 90.0565 233.316 71.7651V71.7651Z" fill="#919DE8"/>
<path d="M188.429 84.0912C203.691 96.7746 226.909 90.5534 233.785 71.9383C242.718 47.752 276.926 47.752 285.86 71.9383C292.735 90.5534 315.953 96.7746 331.215 84.0912C351.044 67.6118 380.67 84.7161 376.313 110.129C372.96 129.688 389.956 146.684 409.515 143.331C434.928 138.974 452.032 168.6 435.553 188.429C422.869 203.691 429.091 226.909 447.706 233.785C471.892 242.718 471.892 276.926 447.706 285.859C429.091 292.735 422.869 315.953 435.553 331.215C452.032 351.044 434.928 380.67 409.515 376.313C389.956 372.96 372.96 389.956 376.313 409.515C380.67 434.928 351.044 452.032 331.215 435.553C315.953 422.869 292.735 429.091 285.86 447.706C276.926 471.892 242.718 471.892 233.785 447.706C226.909 429.091 203.691 422.869 188.429 435.553C168.6 452.032 138.974 434.928 143.331 409.515C146.684 389.956 129.688 372.96 110.129 376.313C84.7162 380.67 67.6119 351.044 84.0913 331.215C96.7747 315.953 90.5535 292.735 71.9384 285.859C47.7521 276.926 47.7521 242.718 71.9384 233.785C90.5535 226.909 96.7747 203.691 84.0913 188.429C67.6119 168.6 84.7162 138.974 110.129 143.331C129.688 146.684 146.684 129.688 143.331 110.129C138.974 84.7161 168.6 67.6119 188.429 84.0912Z" stroke="#9191E8" stroke-opacity="0.5"/>
<path d="M281.008 359.128L281.008 229.497C281.008 220.375 279.384 213.573 276.138 209.09C273.046 204.452 268.099 202.133 261.296 202.133C254.803 202.133 249.624 203.756 245.759 207.002C242.049 210.249 239.421 214.964 237.875 221.148C236.329 227.332 235.556 234.908 235.556 243.874V303.472H201.003L201.003 176.856H227.439L232.077 193.089H233.932C236.715 188.76 239.962 185.281 243.672 182.653C247.537 179.87 251.789 177.861 256.426 176.624C261.064 175.232 266.012 174.537 271.268 174.537C280.08 174.537 287.81 176.16 294.458 179.407C301.106 182.653 306.285 187.678 309.995 194.48C313.705 201.282 315.561 210.094 315.561 220.916V359.128H281.008Z" fill="black"/>
</svg>
